<mxfile host="65bd71144e">
    <diagram id="Dg5AnlnF2rJm70xTPWof" name="Page-1">
        <mxGraphModel dx="620" dy="394" grid="1" gridSize="10" guides="1" tooltips="1" connect="1" arrows="1" fold="1" page="1" pageScale="1" pageWidth="1200" pageHeight="800" math="0" shadow="0">
            <root>
                <mxCell id="0"/>
                <mxCell id="1" parent="0"/>
                <mxCell id="2" value="" style="endArrow=none;html=1;" parent="1" edge="1">
                    <mxGeometry width="50" height="50" relative="1" as="geometry">
                        <mxPoint x="80" y="360" as="sourcePoint"/>
                        <mxPoint x="80" y="40" as="targetPoint"/>
                    </mxGeometry>
                </mxCell>
                <mxCell id="3" value="" style="endArrow=none;html=1;" parent="1" edge="1">
                    <mxGeometry width="50" height="50" relative="1" as="geometry">
                        <mxPoint x="80" y="360" as="sourcePoint"/>
                        <mxPoint x="400" y="360" as="targetPoint"/>
                    </mxGeometry>
                </mxCell>
                <mxCell id="4" value="People" style="text;html=1;strokeColor=none;fillColor=none;align=center;verticalAlign=middle;whiteSpace=wrap;rounded=0;rotation=-90;fontSize=25;" parent="1" vertex="1">
                    <mxGeometry x="40" y="190" width="40" height="20" as="geometry"/>
                </mxCell>
                <mxCell id="5" value="Over Time" style="text;html=1;strokeColor=none;fillColor=none;align=center;verticalAlign=middle;whiteSpace=wrap;rounded=0;rotation=0;fontSize=25;" parent="1" vertex="1">
                    <mxGeometry x="170" y="370" width="120" height="20" as="geometry"/>
                </mxCell>
                <mxCell id="6" value="p1" style="shape=umlActor;verticalLabelPosition=middle;verticalAlign=middle;html=1;outlineConnect=0;fontSize=14;labelPosition=center;align=center;" parent="1" vertex="1">
                    <mxGeometry x="110" y="300" width="20" height="30" as="geometry"/>
                </mxCell>
                <mxCell id="7" value="p1" style="shape=umlActor;verticalLabelPosition=middle;verticalAlign=middle;html=1;outlineConnect=0;fontSize=14;labelPosition=center;align=center;" parent="1" vertex="1">
                    <mxGeometry x="150" y="300" width="20" height="30" as="geometry"/>
                </mxCell>
                <mxCell id="8" value="p1" style="shape=umlActor;verticalLabelPosition=middle;verticalAlign=middle;html=1;outlineConnect=0;fontSize=14;labelPosition=center;align=center;" parent="1" vertex="1">
                    <mxGeometry x="190" y="300" width="20" height="30" as="geometry"/>
                </mxCell>
                <mxCell id="9" value="p1" style="shape=umlActor;verticalLabelPosition=middle;verticalAlign=middle;html=1;outlineConnect=0;fontSize=14;labelPosition=center;align=center;" parent="1" vertex="1">
                    <mxGeometry x="230" y="300" width="20" height="30" as="geometry"/>
                </mxCell>
                <mxCell id="10" value="p1" style="shape=umlActor;verticalLabelPosition=middle;verticalAlign=middle;html=1;outlineConnect=0;fontSize=14;labelPosition=center;align=center;" parent="1" vertex="1">
                    <mxGeometry x="270" y="300" width="20" height="30" as="geometry"/>
                </mxCell>
                <mxCell id="11" value="p1" style="shape=umlActor;verticalLabelPosition=middle;verticalAlign=middle;html=1;outlineConnect=0;fontSize=14;labelPosition=center;align=center;" parent="1" vertex="1">
                    <mxGeometry x="310" y="300" width="20" height="30" as="geometry"/>
                </mxCell>
                <mxCell id="46" value="Temporal Distributed Group" style="rounded=0;whiteSpace=wrap;html=1;fillColor=none;align=left;verticalAlign=top;strokeColor=#3333FF;" vertex="1" parent="1">
                    <mxGeometry x="100" y="270" width="275" height="80" as="geometry"/>
                </mxCell>
            </root>
        </mxGraphModel>
    </diagram>
</mxfile>